<svg width="12" height="12" viewBox="0 0 12 12" fill="none" xmlns="http://www.w3.org/2000/svg">
<path d="M10.3717 6.12447C10.2341 5.98898 10.0129 5.98983 9.87642 6.1264L9.1875 6.81529L8.6564 6.28418L11.8964 3.06173C12.0342 2.92462 12.0346 2.7014 11.897 2.56387L10.9152 1.58201L11.1847 1.31245C11.322 1.17518 11.322 0.952568 11.1847 0.815271C11.0474 0.677997 10.8248 0.677997 10.6875 0.815271L10.418 1.08483L9.43607 0.102958C9.29859 -0.0345497 9.07537 -0.034245 8.93821 0.103614L5.71577 3.34359L5.18468 2.81247L5.8736 2.12355C6.01014 1.98703 6.01099 1.7659 5.87552 1.62829L4.37552 0.104857C4.23804 -0.0347606 4.01261 -0.0350184 3.87487 0.104482L1.99987 2.00292C1.86403 2.14045 1.86471 2.36184 2.00142 2.49853L3.50142 3.99853C3.63874 4.13585 3.8613 4.13583 3.9986 3.99853L4.6875 3.30965L5.21995 3.84211L4.62574 4.43955C4.48907 4.57694 4.48938 4.79904 4.62642 4.93608L5.59659 5.90625L5.08659 6.41625C4.13301 5.68024 2.796 5.65598 1.78364 6.39424C1.60938 6.52129 1.58962 6.7743 1.7422 6.92688L5.07314 10.2578C5.22543 10.4102 5.47847 10.391 5.60578 10.2164C6.34404 9.20409 6.31975 7.86708 5.58375 6.91345L6.09375 6.40345L7.06392 7.37362C7.20054 7.51024 7.42258 7.51136 7.56042 7.3743L8.15789 6.78007L8.69034 7.31252L8.00142 8.00144C7.86412 8.13872 7.86412 8.36133 8.00142 8.49862L9.50142 9.99862C9.63787 10.1351 9.85933 10.1362 9.99705 10.0001L11.8955 8.12515C12.035 7.98738 12.0347 7.76196 11.8951 7.62452L10.3717 6.12447Z" fill="#23A9A1"/>
<path d="M3.375 9.77344C2.74174 9.77344 2.22656 9.25826 2.22656 8.625C2.22656 8.43084 2.06916 8.27344 1.875 8.27344C1.68084 8.27344 1.52344 8.43084 1.52344 8.625C1.52344 9.64596 2.35404 10.4766 3.375 10.4766C3.56916 10.4766 3.72656 10.3192 3.72656 10.125C3.72656 9.93084 3.56916 9.77344 3.375 9.77344Z" fill="#23A9A1"/>
<path d="M3.375 11.2969C1.90172 11.2969 0.703125 10.0983 0.703125 8.625C0.703125 8.43084 0.545719 8.27344 0.351562 8.27344C0.157406 8.27344 0 8.43084 0 8.625C0 10.478 1.52243 12 3.375 12C3.56916 12 3.72656 11.8426 3.72656 11.6484C3.72656 11.4543 3.56916 11.2969 3.375 11.2969Z" fill="#23A9A1"/>
</svg>
