<svg width="12" height="12" viewBox="0 0 12 12" fill="none" xmlns="http://www.w3.org/2000/svg">
<path fill-rule="evenodd" clip-rule="evenodd" d="M7.26322 0.83001C9.33797 2.27013 9.82937 5.08672 8.36009 7.12078L11.7002 10.371C11.7125 10.3823 11.7237 10.3933 11.7353 10.4054C12.1014 10.7835 12.0859 11.3813 11.7002 11.7402C11.3144 12.0994 10.7048 12.0843 10.3383 11.7061L6.94451 8.39883C5.38257 9.30316 3.4247 9.22401 1.94383 8.19614C-0.13127 6.75602 -0.622317 3.93978 0.846612 1.90571C2.31554 -0.128696 5.18847 -0.610113 7.26322 0.83001ZM1.63074 4.51996C1.6318 6.12732 2.96103 7.42945 4.60054 7.42911H4.60265C6.24287 7.42636 7.57034 6.12113 7.56753 4.51342C7.56437 2.90812 6.23585 1.60805 4.59844 1.60874C2.95857 1.60943 1.63039 2.9126 1.63074 4.51996Z" fill="#E95829"/>
</svg>
